<svg xmlns="http://www.w3.org/2000/svg" xmlns:xlink="http://www.w3.org/1999/xlink" width="626.992" height="160.651" viewBox="0 0 626.992 160.651">
  <defs>
    <clipPath id="clip-path">
      <rect width="626.992" height="160.651" fill="none"/>
    </clipPath>
  </defs>
  <g id="logo" transform="translate(208.001 -834.993)">
    <g id="Layer_1" data-name="Layer 1" transform="translate(-208.001 834.993)" clip-path="url(#clip-path)">
      <g id="Layer_1-2" data-name="Layer 1" transform="translate(0 0)">
        <path id="패스_12" data-name="패스 12" d="M419.018,92.351q-5.363-10.58-19.08-17.569,15.635-13.8,15.619-30.88a43.637,43.637,0,0,0-3.25-16.561,39.007,39.007,0,0,0-9.849-13.993A47.49,47.49,0,0,0,386.2,3.775,65.124,65.124,0,0,0,363.89.264H302V160.481h65.79a75.33,75.33,0,0,0,19.926-2.779,58.964,58.964,0,0,0,18.3-8.533,45.881,45.881,0,0,0,13.311-14.627,40.892,40.892,0,0,0,5.071-20.933,46.481,46.481,0,0,0-5.38-21.258Zm-24.866,32.342a22.381,22.381,0,0,1-6.03,7.8,26,26,0,0,1-8.955,4.6,37.576,37.576,0,0,1-10.954,1.625H329.987V22.108h33.984q10.727,0,17.423,5.851a20.1,20.1,0,0,1,6.745,15.927,24.378,24.378,0,0,1-3.25,13,39,39,0,0,1-10.613,10.58,107.43,107.43,0,0,0-11.621-.585h-7.46V88.775h13A38.128,38.128,0,0,1,379.151,90.4a26,26,0,0,1,8.988,4.534,22.315,22.315,0,0,1,6.03,7.7,25.063,25.063,0,0,1,2.194,10.97,25.792,25.792,0,0,1-2.227,11.084Z" transform="translate(188.828 0.169)" fill="#4169e2"/>
        <rect id="사각형_20" data-name="사각형 20" width="83.408" height="22.022" transform="translate(543.584 66.354)" fill="#4169e2"/>
        <path id="패스_13" data-name="패스 13" d="M109.267,134.44a74.94,74.94,0,0,1-25.907,4.177,65.253,65.253,0,0,1-23.81-4.1,47.847,47.847,0,0,1-17.8-11.751,52.609,52.609,0,0,1-11.182-18.43,71.4,71.4,0,0,1-3.884-24.379,75.558,75.558,0,0,1,3.673-24.2A50.529,50.529,0,0,1,41.217,37.234,47.392,47.392,0,0,1,58.8,25.467a64.88,64.88,0,0,1,23.712-4.079A71.284,71.284,0,0,1,108,25.629a54.934,54.934,0,0,1,20.4,14.335l15.57-16.253a76.712,76.712,0,0,0-26.687-17.78Q102.749.341,82.515.357A93.858,93.858,0,0,0,46.906,6.63,74.518,74.518,0,0,0,21.129,23.663,71.511,71.511,0,0,0,5.348,48.968,89.73,89.73,0,0,0,0,80.027,87.585,87.585,0,0,0,5.462,111.1a71.218,71.218,0,0,0,16.074,25.305,76.793,76.793,0,0,0,26.1,17.033,94.768,94.768,0,0,0,35.756,6.273,100.993,100.993,0,0,0,35.154-5.526,76.175,76.175,0,0,0,27.174-17.715l-15.586-16.415a54.284,54.284,0,0,1-20.868,14.383Z" transform="translate(0.001 0.223)" fill="#4169e2"/>
        <path id="패스_14" data-name="패스 14" d="M196.981,95.853a52.43,52.43,0,0,0,22.981-18.414,46.06,46.06,0,0,0,8.37-26.784,46.921,46.921,0,0,0-4-18.934,49.651,49.651,0,0,0-11.377-16.057A55.259,55.259,0,0,0,195.5,4.546,58.623,58.623,0,0,0,173.382.532H102.7V159.807h27.873V100.891h40.875l36.422,58.98h28.588ZM172.163,79.178h-41.59V22.294h41.59q14.026,0,21.567,7.769T201.3,50.752q0,12.888-7.574,20.689T172.163,79.178Z" transform="translate(64.216 0.34)" fill="#4169e2"/>
        <path id="패스_15" data-name="패스 15" d="M345.156,48.924a74.759,74.759,0,0,0-15.732-25.5A73.787,73.787,0,0,0,304.509,6.278,83.083,83.083,0,0,0,271.533,0a85.115,85.115,0,0,0-32.976,6.078,71.917,71.917,0,0,0-24.9,16.838,73.851,73.851,0,0,0-15.749,25.419A89.779,89.779,0,0,0,192.432,80.1a91.7,91.7,0,0,0,5.282,31.4A74.567,74.567,0,0,0,212.959,137a69.4,69.4,0,0,0,24.606,17.033,84.643,84.643,0,0,0,33.171,6.176,85.618,85.618,0,0,0,32.879-6.078,73.754,73.754,0,0,0,25.208-16.838,74.762,74.762,0,0,0,16.139-25.4A87.2,87.2,0,0,0,350.65,80.1a88.154,88.154,0,0,0-5.493-31.172Zm-23.014,55.454a53.1,53.1,0,0,1-10.857,18.707,48.432,48.432,0,0,1-17.163,12.027A57.176,57.176,0,0,1,271.5,139.4a59.906,59.906,0,0,1-21.616-3.787,48.091,48.091,0,0,1-17.244-11.23,51.488,51.488,0,0,1-11.458-18.512A73.965,73.965,0,0,1,217.1,80.1a74.225,74.225,0,0,1,3.884-24.46A52.853,52.853,0,0,1,231.844,36.93a47.766,47.766,0,0,1,17.13-11.946,58.639,58.639,0,0,1,22.558-4.177,60.037,60.037,0,0,1,21.925,3.884,46.645,46.645,0,0,1,17.13,11.377A54.023,54.023,0,0,1,321.85,54.678a72.663,72.663,0,0,1,4.079,25.354,73.965,73.965,0,0,1-3.787,24.346Z" transform="translate(120.318 0.007)" fill="#4169e2"/>
      </g>
    </g>
  </g>
</svg>
