<svg xmlns="http://www.w3.org/2000/svg" width="432.664" height="109.999" viewBox="0 0 432.664 109.999">
  <g id="logo_c_gold" transform="translate(0 0.001)">
    <g id="Layer_1" data-name="Layer 1" transform="translate(0 -0.001)">
      <path id="패스_43" data-name="패스 43" d="M382.838,63.312q-3.705-7.244-13.181-12.029,10.8-9.448,10.79-21.143A29.641,29.641,0,0,0,378.2,18.8a26.708,26.708,0,0,0-6.8-9.581A32.871,32.871,0,0,0,360.17,2.664a45.356,45.356,0,0,0-15.415-2.4H302v109.7h45.449a52.474,52.474,0,0,0,13.765-1.9,40.9,40.9,0,0,0,12.642-5.842,31.518,31.518,0,0,0,9.2-10.015,27.8,27.8,0,0,0,3.5-14.333A31.6,31.6,0,0,0,382.838,63.312ZM365.66,85.457a15.343,15.343,0,0,1-4.165,5.341,18.023,18.023,0,0,1-6.186,3.149,26.173,26.173,0,0,1-7.567,1.113H321.334V15.217h23.477q7.41,0,12.036,4.006a13.708,13.708,0,0,1,4.66,10.905,16.577,16.577,0,0,1-2.246,8.9,26.829,26.829,0,0,1-7.332,7.244,74.87,74.87,0,0,0-8.028-.4h-5.153V60.864h8.982a26.557,26.557,0,0,1,7.567,1.113,18.029,18.029,0,0,1,6.209,3.1,15.3,15.3,0,0,1,4.165,5.275,17.029,17.029,0,0,1,1.516,7.511,17.526,17.526,0,0,1-1.538,7.589Z" transform="translate(36.6 0.039)" fill="#deb37b"/>
      <rect id="사각형_57" data-name="사각형 57" width="57.62" height="15.213" transform="translate(375.045 45.369)" fill="#deb37b"/>
      <path id="패스_44" data-name="패스 44" d="M75.483,92.153a52.193,52.193,0,0,1-17.9,2.86,45.442,45.442,0,0,1-16.448-2.8,33.078,33.078,0,0,1-12.294-8.045,35.962,35.962,0,0,1-7.725-12.619,48.486,48.486,0,0,1-2.683-16.691,51.308,51.308,0,0,1,2.537-16.569,34.528,34.528,0,0,1,7.5-12.685,32.759,32.759,0,0,1,12.148-8.056A45.182,45.182,0,0,1,57,14.75a49.644,49.644,0,0,1,17.6,2.9A37.951,37.951,0,0,1,88.7,27.469L99.454,16.341A53.029,53.029,0,0,0,81.018,4.168Q70.981.34,57,.351a65.359,65.359,0,0,0-24.6,4.3A51.518,51.518,0,0,0,14.6,16.308a48.9,48.9,0,0,0-10.9,17.326A60.943,60.943,0,0,0,0,54.9,59.489,59.489,0,0,0,3.773,76.174,48.707,48.707,0,0,0,14.877,93.5a53.1,53.1,0,0,0,18.031,11.662,65.993,65.993,0,0,0,24.7,4.3,70.34,70.34,0,0,0,24.285-3.783,52.671,52.671,0,0,0,18.772-12.129L89.9,82.305a37.51,37.51,0,0,1-14.416,9.848Z" transform="translate(0.001 0.049)" fill="#deb37b"/>
      <path id="패스_45" data-name="패스 45" d="M167.831,65.793a36.162,36.162,0,0,0,15.876-12.607,31.34,31.34,0,0,0,5.782-18.338,31.881,31.881,0,0,0-2.762-12.964,34,34,0,0,0-7.859-10.994,38.219,38.219,0,0,0-12.058-7.611A40.821,40.821,0,0,0,151.529.53H102.7V109.58h19.255V69.243h28.237l25.161,40.382H195.1ZM150.686,54.376H121.955V15.43h28.731q9.689,0,14.9,5.319t5.232,14.165q0,8.824-5.232,14.165T150.686,54.376Z" transform="translate(12.448 0.072)" fill="#deb37b"/>
      <path id="패스_46" data-name="패스 46" d="M297.935,33.5a50.192,50.192,0,0,0-28.08-29.2A57.845,57.845,0,0,0,247.075,0a59.264,59.264,0,0,0-22.781,4.162,49.707,49.707,0,0,0-17.2,11.529,50.5,50.5,0,0,0-10.879,17.4A60.984,60.984,0,0,0,192.43,54.84a62.284,62.284,0,0,0,3.649,21.5A50.965,50.965,0,0,0,206.611,93.8a47.952,47.952,0,0,0,17,11.662,58.934,58.934,0,0,0,22.915,4.229,59.614,59.614,0,0,0,22.713-4.162A50.3,50.3,0,0,0,297.8,76.606a59.23,59.23,0,0,0,3.93-21.766A59.881,59.881,0,0,0,297.935,33.5Zm-15.9,37.969a36.28,36.28,0,0,1-7.5,12.808,33.46,33.46,0,0,1-11.856,8.235,39.808,39.808,0,0,1-15.629,2.938,41.716,41.716,0,0,1-14.933-2.593,33.253,33.253,0,0,1-11.912-7.689,35.2,35.2,0,0,1-7.915-12.675,50.237,50.237,0,0,1-2.818-17.649,50.414,50.414,0,0,1,2.683-16.748,36.115,36.115,0,0,1,7.5-12.808A33,33,0,0,1,231.491,17.1a40.829,40.829,0,0,1,15.584-2.86,41.805,41.805,0,0,1,15.146,2.66,32.247,32.247,0,0,1,11.834,7.79,36.931,36.931,0,0,1,7.78,12.742,49.354,49.354,0,0,1,2.818,17.36A50.233,50.233,0,0,1,282.037,71.465Z" transform="translate(23.307 0.007)" fill="#deb37b"/>
    </g>
  </g>
</svg>
